<svg version="1.2" xmlns="http://www.w3.org/2000/svg" viewBox="0 0 2015 1299" width="2015" height="1299">
	<defs>
		<clipPath clipPathUnits="userSpaceOnUse" id="cp1">
			<path d="m-252-344h3368v4768h-3368z"/>
		</clipPath>
	</defs>
	<style>
		.s0 { fill: #333333 } 
	</style>
	<g id="Clip-Path: Page 1" clip-path="url(#cp1)">
		<g id="Page 1">
			<path id="Path 2" class="s0" d="m1149.63 54.54c-16.13-8-32.88-14.38-50.25-19-17.5-4.75-35.13-7.75-53.13-8.88-18-1.25-36-0.62-53.75 1.75-17.87 2.25-35.37 6.38-52.5 12.13-17.12 5.75-33.37 13.12-49 22.12-15.62 9-30.25 19.5-43.75 31.38-13.62 11.87-25.87 24.87-36.87 39.25-11 14.25-20.5 29.5-28.5 45.62l-353.38 715.63c-8 16.12-14.25 32.87-19 50.37-4.62 17.38-7.62 35-8.75 53-1.25 18-0.62 36 1.63 53.88 2.37 17.87 6.37 35.37 12.25 52.37q8.62 25.69 22.12 49.13c9 15.62 19.38 30.12 31.25 43.75 11.88 13.62 25 25.87 39.25 36.87 14.38 11 29.5 20.5 45.75 28.5 16.13 8 32.88 14.25 50.38 19 17.37 4.63 35 7.63 53 8.75 18 1.25 36 0.63 53.87-1.62 17.88-2.38 35.38-6.5 52.38-12.25q25.68-8.63 49.12-22.13c15.63-9 30.25-19.5 43.75-31.37 13.63-11.75 25.88-24.88 36.88-39.13q16.5-21.56 28.5-45.75l353.25-715.5c8-16.25 14.37-33 19-50.37 4.75-17.38 7.62-35.13 8.87-53.13 1.13-18 0.63-35.87-1.75-53.75-2.37-17.87-6.37-35.37-12.12-52.5-5.75-17.12-13.25-33.37-22.25-49-9-15.62-19.38-30.25-31.25-43.87-11.88-13.5-25-25.88-39.25-36.88-14.38-10.87-29.5-20.37-45.75-28.37z"/>
			<path id="Path 3" class="s0" d="m531.75 178.91c-7.87-16.12-17.37-31.37-28.37-45.62-11-14.38-23.25-27.38-36.88-39.25-13.62-11.88-28.12-22.38-43.75-31.38q-23.44-13.5-49.12-22.12c-17.13-5.75-34.5-9.88-52.38-12.25-17.87-2.25-35.87-2.88-53.87-1.63-18 1.13-35.63 4.13-53.13 8.75-17.37 4.75-34.12 11.13-50.37 19.13-16.13 8-31.38 17.5-45.63 28.37-14.37 11-27.37 23.38-39.25 36.88-11.87 13.62-22.37 28.25-31.38 43.87-8.99 15.63-16.37 31.88-22.12 49-5.75 17.13-9.88 34.63-12.12 52.5-2.38 17.88-3 35.75-1.75 53.75 1.25 18 4.12 35.75 8.87 53.13 4.63 17.37 11 34.12 19 50.37l277.63 561.5c1.37-3.12 2.62-6.37 4.25-9.5l301.75-610.62z"/>
			<path id="Path 4" class="s0" d="m1846.5 54.54c-16.12-8-32.87-14.38-50.37-19.13-17.38-4.62-35-7.62-53-8.75-18-1.25-36-0.62-53.88 1.63-17.87 2.37-35.37 6.5-52.37 12.25q-25.69 8.62-49.13 22.12c-15.62 9-30.25 19.5-43.75 31.38-13.62 11.87-25.87 24.87-36.87 39.25-11 14.25-20.5 29.5-28.5 45.62l-353.25 715.63c-8 16.12-14.25 32.87-19 50.37-4.63 17.38-7.63 35-8.75 53-1.25 18-0.63 36 1.62 53.88 2.38 17.87 6.5 35.37 12.25 52.37q8.63 25.69 22.13 49.13c9 15.62 19.37 30.12 31.25 43.75 11.87 13.62 25 25.87 39.25 36.87 14.37 11 29.5 20.5 45.75 28.5 16.12 8 32.87 14.25 50.37 19 17.38 4.63 35.13 7.63 53 8.75 18 1.25 36 0.63 53.88-1.62 17.87-2.38 35.37-6.5 52.37-12.25q25.69-8.63 49.13-22.13c15.62-9 30.25-19.5 43.75-31.37 13.62-11.75 25.87-24.88 36.87-39.13q16.5-21.56 28.5-45.75l353.25-715.5c8-16.25 14.38-33 19-50.37 4.75-17.38 7.63-35.13 8.88-53.13 1.12-18 0.62-35.87-1.75-53.75-2.25-17.87-6.38-35.37-12.13-52.5-5.75-17.12-13.12-33.37-22.12-49-9-15.62-19.5-30.25-31.38-43.87-11.87-13.5-25-25.88-39.25-36.88-14.25-10.87-29.5-20.37-45.75-28.37z"/>
			<path id="Path 5" class="s0" d="m1983.63 1161.16c0 8.38-0.88 16.75-2.5 25.13-1.63 8.25-4.13 16.25-7.38 24.12-3.25 7.75-7.12 15.25-11.87 22.25-4.75 7-10 13.5-16 19.5-6 6-12.5 11.38-19.5 16-7 4.75-14.5 8.75-22.25 12-7.88 3.13-15.88 5.63-24.25 7.25-8.25 1.63-16.63 2.5-25.13 2.5-8.37 0-16.75-0.87-25.12-2.5-8.25-1.62-16.25-4.12-24.13-7.25-7.75-3.25-15.25-7.25-22.25-12-7-4.62-13.5-10-19.5-16-6-6-11.37-12.5-16-19.5-4.75-7-8.75-14.5-12-22.25-3.25-7.87-5.62-15.87-7.25-24.12-1.62-8.38-2.5-16.75-2.5-25.13 0-8.5 0.88-16.87 2.5-25.12 1.63-8.38 4-16.38 7.25-24.25 3.25-7.75 7.25-15.25 12-22.25 4.63-7 10-13.5 16-19.5 6-6 12.5-11.38 19.5-16 7-4.75 14.5-8.63 22.25-11.88 7.88-3.25 15.88-5.75 24.13-7.37 8.37-1.63 16.75-2.5 25.12-2.5 8.5 0 16.88 0.87 25.13 2.5 8.37 1.62 16.37 4.12 24.25 7.37 7.75 3.25 15.25 7.13 22.25 11.88 7 4.62 13.5 10 19.5 16 6 6 11.25 12.5 16 19.5 4.75 7 8.62 14.5 11.87 22.25 3.25 7.87 5.75 15.87 7.38 24.25 1.62 8.25 2.5 16.62 2.5 25.12z"/>
		</g>
	</g>
</svg>